<?xml version="1.0" encoding="UTF-8" standalone="no"?>
<svg
   version="1.1"
   id="Layer_1"
   x="0px"
   y="0px"
   width="24.624823"
   height="33.563946"
   viewBox="0 0 84.052728 343.6948"
   enable-background="new 0 0 1024 1024"
   xml:space="preserve"
   sodipodi:docname="logo-email-black-modifier.svg"
   inkscape:version="1.4 (86a8ad7, 2024-10-11)"
   xmlns:inkscape="http://www.inkscape.org/namespaces/inkscape"
   xmlns:sodipodi="http://sodipodi.sourceforge.net/DTD/sodipodi-0.dtd"
   xmlns="http://www.w3.org/2000/svg"
   xmlns:svg="http://www.w3.org/2000/svg"><defs
   id="defs2" /><sodipodi:namedview
   id="namedview2"
   pagecolor="#ffffff"
   bordercolor="#000000"
   borderopacity="0.25"
   inkscape:showpageshadow="2"
   inkscape:pageopacity="0.0"
   inkscape:pagecheckerboard="0"
   inkscape:deskcolor="#d1d1d1"
   inkscape:zoom="2.82"
   inkscape:cx="42.198582"
   inkscape:cy="24.29078"
   inkscape:window-width="1366"
   inkscape:window-height="697"
   inkscape:window-x="-8"
   inkscape:window-y="-8"
   inkscape:window-maximized="1"
   inkscape:current-layer="Layer_1" />
    <path
   fill="#342c35"
   opacity="1"
   stroke="none"
   d="m 121.55131,211.26501 c -3.83655,12.93759 -8.94763,24.84738 -16.87012,35.35324 -10.440459,13.84479 -24.735789,22.0404 -40.983919,27.1239 -10.01902,3.13465 -20.32457,4.96417 -30.76577,6.07788 -4.84604,0.51691 -8.64775,3.32483 -12.30613,6.24713 -14.9543099,11.94574 -25.5107099,27.07709 -32.26506,44.9115 -3.40083,8.97962 -6.34989,10.66669 -15.56304,7.81842 -14.79995,-4.57537 -26.77624,-13.21386 -35.77314,-25.86957 -2.67028,-3.75622 -4.39518,-7.93042 -3.91118,-12.61761 0.4178,-4.04724 -1.2042,-6.38025 -4.7684,-8.23614 -5.0753,-2.6427 -9.2559,-6.55964 -12.5587,-11.24842 -5.5646,-7.89984 -3.0909,-14.24218 6.3578,-15.73504 25.49668,-4.02845 48.5898,-13.68732 69.2853901,-29.06659 3.0656,-2.27808 5.85504,-4.93332 8.71363995,-7.47983 0.58449,-0.52069 0.90603005,-1.33655 1.34595005,-2.01206 -1.16642005,-2.54934 -3.62226,-3.03646 -5.60827,-4.0733 -21.9454301,-11.45727 -40.0237801,-26.90426 -51.3207701,-49.41824 -3.10417,-6.18634 -5.45165,-12.52265 -4.49873,-19.62903 0.31107,-2.31982 -0.83509,-4.14249 -1.94209,-6.039 -8.71232,-14.92609 -15.47922,-30.55008 -17.53462,-47.941226 -0.6759,-5.718411 -0.6248,-11.388241 1.0584,-16.810211 1.0022,-3.22821 0.8435,-5.96054 0.025,-9.13882 -4.0494,-15.72998 -6.5454,-31.61109 -2.5508,-47.77194 0.6718,-2.71793 1.6839,-5.43393 3.018,-7.89051 3.9635,-7.29831 9.767,-7.56393 14.0875,-0.54382 5.33132,8.66241 10.63551,17.30722 17.32956,25.02969 6.68621,7.71344 14.15386,14.57898 22.09817,20.94709 1.24084,0.99463 2.38472,2.42535 4.50253,1.9353 0,-6.55414 -0.0537,-13.12036 0.0114,-19.68539 0.12848,-12.96912 3.15457,-25.3544 7.85188,-37.3580696 0.90143,-2.3035299 2.2562001,-4.4607799 3.6145501,-6.5470599 1.97249,-3.0296 4.49046,-5.6851101 8.45603995,-5.1623501 3.86711005,0.5098 4.49437005,4.06986008 5.36510005,7.0833401 C 11.937581,25.966093 24.354721,45.269683 37.417741,64.260923 c 8.02861,11.67209 15.76567,23.54178 21.39822,36.620327 3.10636,7.2128 5.3241,14.66379 6.17571,22.52481 0.21684,2.00147 0.33285,4.3158 2.37132,6.07135 2.42093,-1.72528 3.49892,-4.41855 5.07309,-6.66864 8.64432,-12.35593 19.34173,-21.9801 34.268279,-26.038326 18.23132,-4.956691 35.0676,3.328306 42.20972,20.863856 1.02002,2.50437 2.49981,4.10278 5.00964,5.12647 2.7597,1.12558 5.52451,2.42166 7.96329,4.1109 4.43588,3.0726 4.07074,7.23193 -0.62467,9.75925 -0.7312,0.39355 -1.49679,0.74731 -2.28277,1.01153 -18.31647,6.15674 -27.22406,19.66251 -30.18979,38.08105 -1.9007,11.80387 -3.82743,23.62317 -7.23874,35.54151 M 56.055141,165.26583 c -4.40171,-11.86273 -11.35006,-22.18188 -19.2417,-31.95221 -13.2519,-16.40674 -30.1777799,-28.58658 -46.99133,-40.876127 -18.96844,-13.86456 -38.33985,-27.24145 -52.76279,-46.28103 -1.25757,-1.66004 -2.64577,-3.22107 -4.57567,-5.55741 -0.3863,18.80283 4.1982,35.24439 12.25693,50.84458 4.07159,7.881861 9.25554,15.018677 14.64385,22.027367 1.24996,1.62586 2.31634,3.68598 0.62242,5.42917 -1.64731,1.69516 -3.85085,0.91763 -5.48241,-0.31613 -3.18071,-2.40524 -6.12779,-5.11765 -9.2803,-7.56268 -2.10725,-1.6344 -3.3128,-4.55359 -6.39311,-5.00681 -1.38121,2.36249 -0.0671,4.19415 0.50151,5.97852 6.92203,21.7211 18.66369,40.39618 35.46722,55.86273 1.52316,1.40198 3.84088,2.9143 2.28679,5.39133 -1.65002,2.62991 -4.11049,1.33673 -6.25423,0.44406 -1.22361,-0.50952 -2.35962,-1.22873 -3.53746,-1.84903 -2.54727,-1.34155 -4.66172,-3.6539 -7.79637,-3.83072 -1.12652,2.44473 0.62461,3.78161 1.52413,5.16974 8.50315,13.1217 20.26696,22.84057 33.1456901,31.35284 9.77922,6.46362 20.4443199,11.14426 31.2860699,15.47461 3.73791,1.49298 4.64445,4.51077 1.707,6.1012 -6.59059,3.56833 -11.25613,9.29446 -16.74341,14.07956 -19.8585499,17.31735 -42.50595,29.01413 -68.27661,34.69986 -2.79579,0.61682 -5.98201,0.20678 -8.71031,2.41888 2.5149,3.55884 6.20769,4.62402 9.84655,5.5387 5.52954,1.39007 11.1175,1.84222 16.79782,0.51593 2.55588,-0.59681 5.21131,-0.091 6.36417,2.64776 1.13219,2.68964 -0.28,4.80963 -2.39779,6.49958 -2.64776,2.11285 -5.72538,3.30273 -8.87995,4.44598 -2.58353,0.93616 -5.72827,0.48096 -7.85051,3.01044 0.1469,0.6231 0.173,1.31915 0.46331,1.87799 4.79874,9.23773 12.56456,15.37964 21.44833,20.2796 5.37421,2.96417 6.20045,2.69067 8.5153,-2.8476 7.07764,-16.93304 17.9812501,-31.05883 31.5991201,-43.17474 5.7614599,-5.12598 11.8605899,-9.32306 20.0522999,-10.24945 8.55117,-0.9671 17.074,-2.73035 25.4172,-4.88812 23.92139,-6.18665 40.37572,-20.85407 49.270979,-44.0774 5.14923,-13.44326 7.56934,-27.47723 10.11393,-41.52075 3.01351,-16.63147 6.84158,-32.84341 23.23858,-42.10949 1.50778,-0.85209 1.96338,-2.26969 1.5502,-3.86823 -3.10663,-12.01956 -16.53528,-24.51758 -31.26223,-17.84381 -7.0817,3.20917 -12.865729,8.19275 -18.117769,13.88446 -7.52406,8.1539 -12.13725,18.31931 -18.91229,26.95807 -2.00792,2.56027 -2.33512,4.83691 -1.60585,7.75116 2.58586,10.33343 2.38047,20.76025 0.59005,31.17065 -0.40114,2.33243 -0.49479,5.76612 -3.57817,5.88556 -3.80517,0.1474 -2.64892,-3.90127 -3.71463,-6.078 -0.2744,-0.56049 -0.14151,-1.31265 -0.23289,-1.97162 -1.09972,-7.93051 -2.83927,-15.69943 -6.11167,-23.87897 M 41.603361,116.8215 c 3.40894,2.95163 5.53784,7.22763 9.73555,9.87091 0.22658,-2.85718 -0.52325,-5.0564 -1.20527,-7.26725 -3.90934,-12.67254 -10.10743,-24.211327 -17.40487,-35.211567 -11.4844,-17.31177 -23.9731399,-34.01847 -32.14646995,-53.33097 -0.40986,-0.96844 -0.64663,-2.3674 -2.22192995,-2.22986 -0.99224,0.57438 -1.27947,1.4693 -1.53595,2.47818 -2.78452,10.95264 -2.47019,22.10013 -1.80553,33.20853 0.61687,10.30966 5.11141995,18.13587 14.12112,24.1926 C 20.860011,96.410794 31.331431,106.04019 41.603361,116.8215 Z"
   id="path1" />
    <path
   fill="#342c35"
   opacity="1"
   stroke="none"
   d="m 112.28825,127.4269 c -2.59397,-2.99859 -2.89386,-6.04858 -1.07428,-9.00436 1.53387,-2.4917 4.24362,-3.13379 7.00332,-2.77014 3.01609,0.39743 4.53675,2.58465 5.21164,5.34335 0.66446,2.71604 -0.45138,5.00467 -2.5231,6.58011 -2.62359,1.99503 -5.52499,1.94415 -8.61758,-0.14896 z"
   id="path2" />
</svg>
