<?xml version="1.0" encoding="UTF-8" standalone="no"?>
<svg
   version="1.1"
   id="Layer_1"
   x="0px"
   y="0px"
   width="300"
   height="300"
   viewBox="0 0 1024 3072"
   enable-background="new 0 0 1024 1024"
   xml:space="preserve"
   sodipodi:docname="logo-email-black-size-modifier.svg"
   inkscape:version="1.4 (86a8ad7, 2024-10-11)"
   xmlns:inkscape="http://www.inkscape.org/namespaces/inkscape"
   xmlns:sodipodi="http://sodipodi.sourceforge.net/DTD/sodipodi-0.dtd"
   xmlns="http://www.w3.org/2000/svg"
   xmlns:svg="http://www.w3.org/2000/svg"><defs
   id="defs2" /><sodipodi:namedview
   id="namedview2"
   pagecolor="#ffffff"
   bordercolor="#000000"
   borderopacity="0.25"
   inkscape:showpageshadow="2"
   inkscape:pageopacity="0.0"
   inkscape:pagecheckerboard="0"
   inkscape:deskcolor="#d1d1d1"
   inkscape:zoom="2.82"
   inkscape:cx="184.04255"
   inkscape:cy="307.97872"
   inkscape:window-width="1366"
   inkscape:window-height="697"
   inkscape:window-x="-8"
   inkscape:window-y="-8"
   inkscape:window-maximized="1"
   inkscape:current-layer="Layer_1" />
    <path
   fill="#342c35"
   opacity="1"
   stroke="none"
   d="m 1481.0158,1903.9571 c -45.182,111.7837 -105.3739,214.6869 -198.6751,305.4599 -122.9546,119.6221 -291.3071,190.434 -482.65719,234.3565 -117.99143,27.0841 -239.35731,42.8916 -362.32069,52.5143 -57.07055,4.4662 -101.8424,28.7273 -144.92615,53.9766 -176.11315,103.2138 -300.4332537,233.9521 -379.977522,388.0455 -40.050718,77.5859 -74.781048,92.1626 -183.281998,67.5529 -174.29528,-39.5323 -315.33702,-114.1708 -421.29125,-223.519 -31.44722,-32.4546 -51.76092,-68.5205 -46.06097,-109.0189 4.92032,-34.9691 -14.18157,-55.1268 -56.15625,-71.1622 -59.77053,-22.8334 -109.0044,-56.6767 -147.90064,-97.1888 -65.53304,-68.2563 -36.40076,-123.0556 74.8742,-135.9542 300.26797,-34.8068 572.22982,-118.2616 815.956556,-251.1419 36.102797,-19.6831 68.953331,-42.6249 102.618339,-64.6274 6.883392,-4.4989 10.670086,-11.5481 15.850917,-17.3847 C 53.331419,2013.8389 24.409612,2009.6301 1.0208693,2000.6715 -257.42491,1901.6782 -470.32909,1768.2127 -603.37088,1573.6868 c -36.55703,-53.4513 -64.20272,-108.1984 -52.98041,-169.5991 3.66338,-20.0438 -9.83465,-35.7921 -22.87151,-52.1784 -102.60279,-128.9647 -182.29487,-263.9595 -206.5008,-414.2229 -7.9599,-49.40834 -7.35811,-98.39695 12.46451,-145.24397 11.80265,-27.89247 9.93369,-51.50041 0.29442,-78.96146 -47.68876,-135.91055 -77.08353,-273.12689 -30.04012,-412.76026 7.91161,-23.48352 19.83085,-46.95037 35.54221,-68.17577 46.67715,-63.05903 115.02351,-65.35405 165.90495,-4.69872 62.78561,74.84516 125.25172,149.53825 204.08585,216.26212 78.74181,66.64585 166.68644,125.96565 260.24458,180.98754 14.61306,8.59384 28.08424,20.95557 53.02515,16.72143 0,-56.62923 -0.63241,-113.36284 0.13426,-170.08618 1.51308,-112.05609 37.15058,-219.06769 92.469608,-322.78208 10.615905,-19.90301 26.570685,-38.54214 42.567641,-56.56806 23.229513,-26.176424 52.8830093,-49.120626 99.584649,-44.603862 45.542007,4.404787 52.929082,35.164502 63.183392,61.201642 76.38523,193.95419 222.6187,360.74152 376.45858,524.83009 94.55093,100.84947 185.66835,203.40625 252.0015,316.40782 36.58283,62.32022 62.70061,126.69842 72.72978,194.61942 2.55364,17.2932 3.91983,37.2894 27.92642,52.4578 28.51068,-14.9068 41.20591,-38.1773 59.74455,-57.6186 101.80187,-106.7579 227.78247,-189.91292 403.56877,-224.9769 214.7056,-42.82692 412.9822,28.75731 497.0932,180.2684 12.0125,21.6384 29.4396,35.4489 58.9972,44.2938 32.5003,9.7253 65.0608,20.9237 93.7817,35.5191 52.2402,26.548 47.9401,62.4856 -7.3565,84.3222 -8.6112,3.4003 -17.6274,6.4568 -26.8837,8.7398 -215.7084,53.1956 -320.6109,169.8885 -355.5375,329.0288 -22.3841,101.9881 -45.0747,204.1094 -85.2488,307.0866 M 709.68404,1506.5139 C 657.84625,1404.0172 576.01733,1314.8575 483.07948,1230.4396 327.01511,1088.6817 127.68331,983.44516 -70.325617,877.26074 -293.71214,757.46784 -521.84435,641.88851 -691.69967,477.38228 c -14.81009,-14.34312 -31.15857,-27.83077 -53.88652,-48.01728 -4.54935,162.46066 49.44115,304.51943 144.34678,439.30856 47.95009,68.10104 109.00016,129.76473 172.45692,190.32134 14.72047,14.0478 27.27896,31.8477 7.33009,46.9093 -19.39995,14.6466 -45.35049,7.9286 -64.56496,-2.7315 -37.45842,-20.7817 -72.16544,-44.2176 -109.29175,-65.3431 -24.81655,-14.1217 -39.01401,-39.34411 -75.29005,-43.26004 -16.26615,20.41244 -0.79022,36.23844 5.90616,51.65584 81.51901,187.6751 219.79757,349.032 417.6885,482.6664 17.93788,12.1134 45.23308,25.1802 26.93095,46.5823 -19.43187,22.723 -48.4082,11.5496 -73.65448,3.8368 -14.41015,-4.4024 -27.78865,-10.6165 -41.65978,-15.976 -29.99856,-11.5913 -54.8999,-31.5706 -91.81589,-33.0983 -13.26673,21.123 7.35588,32.6739 17.9493,44.6676 100.13945,113.3745 238.67887,197.3478 390.348422,270.8956 115.167393,55.8472 240.767568,96.2889 368.448188,133.7041 44.02036,12.8997 54.69652,38.9741 20.1029,52.7158 -77.6157,30.8311 -132.56065,80.3062 -197.1829,121.6505 -233.869177,149.6258 -500.58188,250.6886 -804.07644,299.8146 -32.92532,5.3294 -70.44863,1.7866 -102.57913,20.8996 29.61734,30.7492 73.1064,39.9526 115.96034,47.8556 65.11999,12.0106 130.92799,15.9172 197.82369,4.4578 30.09995,-5.1566 61.37228,-0.7863 74.94922,22.8772 13.33352,23.2392 -3.29749,41.5563 -28.23817,56.1578 -31.182,18.2555 -67.42635,28.5364 -104.57693,38.4143 -30.42558,8.0887 -67.46039,4.1556 -92.45347,26.0109 1.73,5.3837 2.03737,11.3978 5.45628,16.2263 56.51355,79.816 147.96965,132.8835 252.59157,175.2203 63.29072,25.611 73.02113,23.2479 100.28255,-24.604 83.35158,-146.3052 211.76063035,-268.3552 372.13491,-373.0394 67.8512,-44.2896 139.67908,-80.5533 236.15087,-88.5576 100.70492,-8.3558 201.07615,-23.5908 299.33192,-42.2344 281.7162,-53.454 475.49448,-180.1838 580.25178,-380.8385 60.6412,-116.1529 89.1422,-237.4095 119.1092,-358.7486 35.4893,-143.6997 80.5716,-283.7745 273.6749,-363.8355 17.7568,-7.3622 23.1222,-19.6106 18.2563,-33.4224 -36.586,-103.8517 -194.7318,-211.83734 -368.1674,-154.1744 -83.3994,27.7279 -151.5164,70.7872 -213.3684,119.9648 -88.6089,70.4515 -142.93723,158.2829 -222.72513,232.9237 -23.64679,22.1213 -27.50012,41.792 -18.91167,66.9719 30.45299,89.283 28.0342,179.3731 6.94888,269.3213 -4.7242,20.1527 -5.82707,49.8206 -42.13922,50.8526 -44.81255,1.2736 -31.19569,-33.7079 -43.74631,-52.5154 -3.23147,-4.8427 -1.66654,-11.3416 -2.74263,-17.0351 -12.95121,-68.5214 -33.43739,-135.6467 -71.97568,-206.3197 M 539.48912,1087.9441 c 40.14625,25.5027 65.21772,62.4483 114.65315,85.2868 2.66839,-24.6867 -6.16221,-43.6885 -14.19424,-62.7907 C 593.90879,1000.9467 520.9154,901.24894 434.97534,806.20439 299.7264,656.62683 152.6497,512.2772 56.394428,345.41287 51.56761,337.04534 48.779231,324.95801 30.227321,326.14639 18.541965,331.10916 15.159328,338.84147 12.138823,347.55842 -20.65376,442.19168 -16.951978,538.50849 -9.1244427,634.48755 -1.8597197,723.56532 51.071459,791.18553 157.17641,843.51703 295.19988,911.59095 418.5192,994.79106 539.48912,1087.9441 Z"
   id="path1"
   style="stroke-width:10.0873" />
    <path
   fill="#342c35"
   opacity="1"
   stroke="none"
   d="m 1412.9742,1225.8867 c -31.6019,-26.8018 -35.2554,-54.0631 -13.0877,-80.4824 18.6869,-22.2712 51.6993,-28.0103 85.3203,-24.76 36.7446,3.5523 55.2705,23.1021 63.4926,47.7598 8.095,24.2764 -5.4991,44.7325 -30.7385,58.8141 -31.9628,17.8319 -67.3101,17.3771 -104.9867,-1.3315 z"
   id="path2"
   style="stroke-width:10.4351" />
</svg>
