<svg xmlns="http://www.w3.org/2000/svg" xmlns:xlink="http://www.w3.org/1999/xlink" version="1.1" id="Layer_1" x="0px" y="0px" width="300px" height="100px" viewBox="0 0 1024 1024" enable-background="new 0 0 1024 1024" xml:space="preserve">
    <path fill="#dbb981" opacity="1.000000" stroke="none" d=" M288.063049,480.834259   C284.226501,493.771851 279.115417,505.681641 271.192932,516.187500   C260.752472,530.032288 246.457138,538.227905 230.209015,543.311401   C220.189987,546.446045 209.884445,548.275574 199.443237,549.389282   C194.597198,549.906189 190.795486,552.714111 187.137115,555.636414   C172.182800,567.582153 161.626404,582.713501 154.872055,600.547913   C151.471222,609.527527 148.522156,611.214600 139.309006,608.366333   C124.509064,603.790955 112.532768,595.152466 103.535866,582.496765   C100.865547,578.740540 99.140739,574.566345 99.624664,569.879150   C100.042511,565.831909 98.420517,563.498901 94.856316,561.643005   C89.780991,559.000305 85.600372,555.083374 82.297630,550.394592   C76.732979,542.494751 79.206650,536.152405 88.655426,534.659546   C114.152069,530.631104 137.245193,520.972229 157.940781,505.592957   C161.006378,503.314880 163.795822,500.659637 166.654419,498.113129   C167.238907,497.592438 167.560455,496.776581 168.000366,496.101074   C166.833954,493.551727 164.378113,493.064606 162.392105,492.027771   C140.446671,480.570496 122.368324,465.123505 111.071327,442.609528   C107.967155,436.423187 105.619682,430.086884 106.572601,422.980499   C106.883675,420.660675 105.737511,418.838013 104.630508,416.941498   C95.918152,402.015411 89.151337,386.391418 87.095856,369.000275   C86.419983,363.281860 86.471100,357.612030 88.154297,352.190063   C89.156464,348.961853 88.997742,346.229523 88.179558,343.051239   C84.130188,327.321259 81.634163,311.440155 85.628807,295.279297   C86.300621,292.561371 87.312645,289.845367 88.646759,287.388794   C92.610336,280.090485 98.413750,279.824860 102.734306,286.844971   C108.065605,295.507385 113.369804,304.152191 120.063850,311.874664   C126.750061,319.588104 134.217712,326.453644 142.162018,332.821747   C143.402863,333.816376 144.546738,335.247101 146.664551,334.757050   C146.664551,328.202911 146.610886,321.636688 146.675919,315.071655   C146.804398,302.102539 149.830490,289.717255 154.527802,277.713593   C155.429230,275.410065 156.783997,273.252808 158.142349,271.166534   C160.114838,268.136932 162.632812,265.481415 166.598389,266.004181   C170.465500,266.513977 171.092758,270.074036 171.963486,273.087524   C178.449585,295.535339 190.866730,314.838928 203.929749,333.830170   C211.958359,345.502258 219.695419,357.371948 225.327972,370.450500   C228.434326,377.663300 230.652069,385.114288 231.503677,392.975311   C231.720520,394.976776 231.836533,397.291107 233.875000,399.046661   C236.295929,397.321381 237.373917,394.628113 238.948090,392.378021   C247.592407,380.022095 258.289825,370.397919 273.216370,366.339691   C291.447693,361.382996 308.283966,369.667999 315.426086,387.203552   C316.446106,389.707916 317.925903,391.306335 320.435730,392.330017   C323.195435,393.455597 325.960236,394.751678 328.399017,396.440918   C332.834900,399.513519 332.469757,403.672852 327.774353,406.200165   C327.043152,406.593719 326.277557,406.947479 325.491577,407.211700   C307.175110,413.368439 298.267517,426.874207 295.301788,445.292755   C293.401093,457.096619 291.474365,468.915924 288.063049,480.834259  M222.567154,434.835083   C218.165436,422.972351 211.217087,412.653198 203.325455,402.882874   C190.073547,386.476135 173.147675,374.296295 156.334122,362.006744   C137.365677,348.142181 117.994270,334.765289 103.571327,315.725708   C102.313805,314.065674 100.925598,312.504639 98.995636,310.168304   C98.609375,328.971130 103.193871,345.412689 111.252586,361.012878   C115.324181,368.894745 120.508133,376.031555 125.896439,383.040253   C127.146400,384.666107 128.212784,386.726227 126.518860,388.469421   C124.871552,390.164581 122.668015,389.387054 121.036453,388.153290   C117.855736,385.748047 114.908661,383.035645 111.756149,380.590607   C109.648903,378.956207 108.443352,376.037018 105.363037,375.583801   C103.981834,377.946289 105.295906,379.777954 105.864555,381.562317   C112.786575,403.283417 124.528236,421.958496 141.331772,437.425049   C142.854935,438.827026 145.172653,440.339355 143.618561,442.816376   C141.968536,445.446289 139.508072,444.153107 137.364334,443.260437   C136.140717,442.750916 135.004715,442.031708 133.826874,441.411407   C131.279602,440.069855 129.165146,437.757507 126.030502,437.580688   C124.903976,440.025421 126.655113,441.362305 127.554634,442.750427   C136.057785,455.872131 147.821594,465.591003 160.700317,474.103271   C170.479538,480.566895 181.144638,485.247528 191.986389,489.577881   C195.724304,491.070862 196.630844,494.088654 193.693390,495.679077   C187.102798,499.247406 182.437256,504.973541 176.949982,509.758636   C157.091431,527.075989 134.444031,538.772766 108.673370,544.458496   C105.877579,545.075317 102.691338,544.665283 99.963028,546.877380   C102.477966,550.436218 106.170746,551.501404 109.809608,552.416077   C115.339149,553.806152 120.927109,554.258301 126.607430,552.932007   C129.163315,552.335205 131.818741,552.841003 132.971603,555.579773   C134.103790,558.269409 132.691605,560.389404 130.573807,562.079346   C127.926048,564.192200 124.848434,565.382080 121.693863,566.525330   C119.110329,567.461487 115.965591,567.006287 113.843353,569.535767   C113.990250,570.158875 114.016350,570.854919 114.306664,571.413757   C119.105400,580.651489 126.871216,586.793396 135.754990,591.693359   C141.129196,594.657532 141.955444,594.384033 144.270294,588.845764   C151.347931,571.912720 162.251541,557.786926 175.869415,545.671021   C181.630875,540.545044 187.729996,536.347961 195.921707,535.421570   C204.472885,534.454468 212.995712,532.691223 221.338913,530.533447   C245.260300,524.346802 261.714630,509.679382 270.609894,486.456055   C275.759125,473.012787 278.179230,458.978821 280.723816,444.935303   C283.737335,428.303833 287.565399,412.091888 303.962402,402.825806   C305.470184,401.973724 305.925781,400.556122 305.512604,398.957581   C302.405975,386.938019 288.977325,374.440002 274.250366,381.113770   C267.168671,384.322937 261.384644,389.306519 256.132599,394.998230   C248.608536,403.152130 243.995346,413.317535 237.220306,421.956299   C235.212387,424.516571 234.885193,426.793213 235.614456,429.707458   C238.200317,440.040894 237.994934,450.467712 236.204514,460.878113   C235.803375,463.210541 235.709717,466.644226 232.626343,466.763672   C228.821167,466.911072 229.977417,462.862396 228.911713,460.685669   C228.637314,460.125183 228.770203,459.373016 228.678818,458.714050   C227.579102,450.783539 225.839554,443.014618 222.567154,434.835083  M208.115402,386.390747   C211.524338,389.342377 213.653244,393.618378 217.850952,396.261658   C218.077530,393.404480 217.327698,391.205261 216.645676,388.994415   C212.736343,376.321869 206.538254,364.783081 199.240814,353.782837   C187.756409,336.471069 175.267670,319.764374 167.094345,300.451874   C166.684479,299.483429 166.447708,298.084473 164.872406,298.222015   C163.880173,298.796387 163.592941,299.691315 163.336456,300.700195   C160.551941,311.652832 160.866272,322.800323 161.530930,333.908722   C162.147797,344.218384 166.642349,352.044586 175.652054,358.101318   C187.372055,365.980042 197.843475,375.609436 208.115402,386.390747  z"/>
    <path fill="#dbb981" opacity="1.000000" stroke="none" d=" M278.799988,396.996155   C276.206024,393.997559 275.906128,390.947571 277.725708,387.991791   C279.259583,385.500092 281.969330,384.858002 284.729034,385.221649   C287.745117,385.619080 289.265778,387.806305 289.940674,390.565002   C290.605133,393.281036 289.489288,395.569672 287.417572,397.145111   C284.793976,399.140137 281.892578,399.089264 278.799988,396.996155  z"/>
</svg>