<?xml version="1.0" encoding="utf-8"?>
<svg xmlns="http://www.w3.org/2000/svg" width="369.623" height="84.3336" style="width: 369.623px; height: 84.3336px; " viewBox="0 0 370 85" preserveAspectRatio="xMidYMid meet"><g transform="matrix(3.012140182611496,0,0,3.012140182611496,-0.012801745151336797,-7.536689568188723)" fill="#342c35"><g><path fill-rule="evenodd" clip-rule="evenodd" fill="#342c35" d="M29.193,5.265c-3.629-3.596-9.432-3.671-13.191-0.288   C12.242,1.594,6.441,1.669,2.81,5.265c-3.741,3.704-3.741,9.709,0,13.415c1.069,1.059,11.053,10.941,11.053,10.941   c1.183,1.172,3.096,1.172,4.278,0c0,0,10.932-10.822,11.053-10.941C32.936,14.974,32.936,8.969,29.193,5.265z M27.768,17.268   L16.715,28.209c-0.393,0.391-1.034,0.391-1.425,0L4.237,17.268c-2.95-2.92-2.95-7.671,0-10.591   c2.844-2.815,7.416-2.914,10.409-0.222l1.356,1.22l1.355-1.22c2.994-2.692,7.566-2.594,10.41,0.222   C30.717,9.596,30.717,14.347,27.768,17.268z"></path><path fill-rule="evenodd" clip-rule="evenodd" fill="#342c35" d="M9.253,7.501c-0.002,0-0.002,0.001-0.004,0.001   c-2.345,0.002-4.246,1.903-4.246,4.249l0,0c0,0.276,0.224,0.5,0.5,0.5s0.5-0.224,0.5-0.5V11.75c0-1.794,1.455-3.249,3.249-3.249   h0.001c0.276,0,0.5-0.224,0.5-0.5S9.53,7.501,9.253,7.501z"></path></g></g><g transform="matrix(3.5030826389574194,0,0,3.5030826389574194,110.39506560614817,-17.216032395218534)" fill="#342c35"><path d="M10.06 18.86 c0.38 0 0.66 0.3 0.66 0.68 c0 0.36 -0.28 0.66 -0.66 0.66 l-7.78 0 c-0.38 0 -0.68 -0.3 -0.68 -0.66 l0 -13.38 c0 -0.36 0.3 -0.66 0.68 -0.66 c0.36 0 0.66 0.3 0.66 0.66 l0 12.7 l7.12 0 l0 0 z M4.28 6.16 c0 -0.36 0.3 -0.66 0.66 -0.66 c0.38 0 0.68 0.3 0.68 0.66 l0 10.02 l4.44 0 c0.38 0 0.66 0.3 0.66 0.68 c0 0.36 -0.28 0.66 -0.66 0.66 l-5.12 0 c-0.36 0 -0.66 -0.3 -0.66 -0.66 l0 -10.7 l0 0 z M27.68 10.54 c0.1 0.36 -0.08 0.74 -0.44 0.84 c-0.36 0.12 -0.76 -0.08 -0.86 -0.44 c-0.42 -1.28 -1.22 -2.38 -2.32 -3.18 c-1.04 -0.74 -2.34 -1.2 -3.76 -1.2 c-8.34 0 -8.34 12.52 0 12.52 c1.42 0 2.72 -0.44 3.76 -1.2 c1.1 -0.78 1.9 -1.88 2.32 -3.18 c0.1 -0.36 0.5 -0.54 0.86 -0.44 s0.54 0.5 0.44 0.86 c-0.5 1.56 -1.5 2.92 -2.8 3.86 c-1.3 0.92 -2.86 1.48 -4.58 1.48 c-10.14 0 -10.14 -15.26 0 -15.26 c1.72 0 3.28 0.54 4.58 1.46 c1.3 0.96 2.3 2.3 2.8 3.88 l0 0 z M16.18 15.24 c-0.2 -0.34 -0.08 -0.72 0.24 -0.92 c0.34 -0.18 0.74 -0.08 0.92 0.26 c0.32 0.52 0.76 0.98 1.28 1.26 c0.48 0.3 1.06 0.48 1.68 0.48 c0.96 0 1.82 -0.38 2.42 -1.02 c0.64 -0.62 1.02 -1.5 1.02 -2.48 c0 -0.96 -0.38 -1.84 -1.02 -2.46 c-0.6 -0.62 -1.46 -1.02 -2.42 -1.02 c-0.62 0 -1.18 0.16 -1.68 0.46 c-0.52 0.3 -0.96 0.74 -1.28 1.26 c-0.18 0.34 -0.58 0.46 -0.92 0.28 c-0.32 -0.18 -0.44 -0.6 -0.24 -0.94 c0.42 -0.74 1.02 -1.36 1.74 -1.78 s1.54 -0.64 2.38 -0.64 c1.34 0 2.54 0.54 3.42 1.42 c0.84 0.88 1.38 2.08 1.38 3.42 s-0.54 2.54 -1.38 3.42 c-0.88 0.9 -2.08 1.44 -3.42 1.44 c-0.84 0 -1.66 -0.24 -2.38 -0.64 c-0.72 -0.44 -1.32 -1.06 -1.74 -1.8 l0 0 z M32.019999999999996 6.42 c-0.16 -0.36 0.02 -0.72 0.34 -0.88 c0.36 -0.12 0.74 0.04 0.88 0.38 l2.08 5.06 l2.06 -5.06 c0.12 -0.34 0.52 -0.5 0.86 -0.38 c0.34 0.16 0.5 0.52 0.38 0.88 l-2.7 6.58 c-0.22 0.54 -1 0.54 -1.24 0 l-2.66 -6.58 l0 0 z M40.4 5.92 c0.14 -0.34 0.54 -0.5 0.86 -0.38 c0.34 0.16 0.5 0.52 0.36 0.88 l-5.7 13.98 c-0.24 0.56 -1 0.56 -1.24 0 l-5.7 -13.98 c-0.12 -0.36 0.02 -0.72 0.38 -0.88 c0.34 -0.12 0.72 0.04 0.86 0.38 l5.1 12.48 l5.08 -12.48 l0 0 z M50.919999999999995 6.02 c0.82 0.28 0.38 1.56 -0.46 1.26 c-1.8 -0.64 -3.96 -0.98 -5.28 0.48 c-1.08 1.14 -1.36 3.24 0.08 4.48 c1.74 1.56 4.22 1.22 4.36 3.34 c0.06 1.12 -0.92 1.94 -2 2.02 c-1.3 0.08 -2.92 -0.24 -4.24 -1.2 c-0.7 -0.5 0.08 -1.58 0.78 -1.08 c1.54 1.12 4.24 1.32 4.12 0.32 c-0.08 -0.94 -2.06 -0.78 -3.92 -2.4 c-2.9 -2.54 -1.14 -7.6 2.98 -7.8 c1.2 -0.06 2.18 0.1 3.58 0.58 l0 0 z M43.11999999999999 19.24 c-0.76 -0.4 -0.14 -1.58 0.64 -1.18 c3.08 1.64 7.26 1.22 7.26 -2.48 c0 -2.74 -3.6 -3.24 -4.62 -4.06 c-1.6 -1.26 -0.76 -4.8 4.22 -2.78 c0.78 0.32 0.3 1.56 -0.52 1.22 c-3.02 -1.22 -3.54 0.02 -2.88 0.54 c0.74 0.56 5.12 1.36 5.12 5.08 c0 3.66 -3.24 5.38 -6.98 4.48 c-0.68 -0.14 -1.46 -0.4 -2.24 -0.82 l0 0 z M47.49999999999999 16.28 l0 0 l0 0 z M58.75999999999999 19.54 c0 0.36 -0.3 0.66 -0.66 0.66 c-0.38 0 -0.68 -0.3 -0.68 -0.66 l0 -13.38 c0 -0.36 0.3 -0.66 0.68 -0.66 c0.36 0 0.66 0.3 0.66 0.66 l0 13.38 l0 0 z M56.07999999999999 19.54 c0 0.36 -0.3 0.66 -0.66 0.66 c-0.38 0 -0.68 -0.3 -0.68 -0.66 l0 -13.38 c0 -0.36 0.3 -0.66 0.68 -0.66 c0.36 0 0.66 0.3 0.66 0.66 l0 13.38 l0 0 z M66.64 17.54 l-1.32 0 c-0.36 0 -0.66 -0.3 -0.66 -0.68 c0 -0.36 0.3 -0.66 0.66 -0.66 l1.32 0 c1.98 0 3.24 -1.46 3.24 -3.36 c0 -1.88 -1.26 -3.34 -3.24 -3.34 l-0.66 0 l0 4.68 c0 0.38 -0.28 0.68 -0.66 0.68 c-0.36 0 -0.66 -0.3 -0.66 -0.68 l0 -5.34 c0 -0.38 0.3 -0.68 0.66 -0.68 l1.32 0 c2.74 0 4.56 2.06 4.56 4.68 c0 2.64 -1.82 4.7 -4.56 4.7 l0 0 z M63.31999999999999 19.54 c0 0.36 -0.3 0.66 -0.68 0.66 c-0.36 0 -0.66 -0.3 -0.66 -0.66 l0 -13.38 c0 -0.36 0.3 -0.66 0.66 -0.66 l4 0 c4.34 0 7.36 3.12 7.36 7.34 c0 4.24 -3.02 7.36 -7.36 7.36 l-1.34 0 c-0.36 0 -0.66 -0.3 -0.66 -0.66 c0 -0.38 0.3 -0.68 0.66 -0.68 l1.34 0 c3.58 0 6.02 -2.52 6.02 -6.02 c0 -3.48 -2.44 -6 -6.02 -6 l-3.32 0 l0 12.7 l0 0 z"></path></g><g transform="matrix(0.4822879951404674,0,0,0.4822879951404674,115.22833890881057,73.49210205731303)" fill="#dbb981"><path d="M10.06 18.86 c0.38 0 0.66 0.3 0.66 0.68 c0 0.36 -0.28 0.66 -0.66 0.66 l-7.78 0 c-0.38 0 -0.68 -0.3 -0.68 -0.66 l0 -13.38 c0 -0.36 0.3 -0.66 0.68 -0.66 c0.36 0 0.66 0.3 0.66 0.66 l0 12.7 l7.12 0 l0 0 z M4.28 6.16 c0 -0.36 0.3 -0.66 0.66 -0.66 c0.38 0 0.68 0.3 0.68 0.66 l0 10.02 l4.44 0 c0.38 0 0.66 0.3 0.66 0.68 c0 0.36 -0.28 0.66 -0.66 0.66 l-5.12 0 c-0.36 0 -0.66 -0.3 -0.66 -0.66 l0 -10.7 l0 0 z M45.660000000000004 10.54 c0.1 0.36 -0.08 0.74 -0.44 0.84 c-0.36 0.12 -0.76 -0.08 -0.86 -0.44 c-0.42 -1.28 -1.22 -2.38 -2.32 -3.18 c-1.04 -0.74 -2.34 -1.2 -3.76 -1.2 c-8.34 0 -8.34 12.52 0 12.52 c1.42 0 2.72 -0.44 3.76 -1.2 c1.1 -0.78 1.9 -1.88 2.32 -3.18 c0.1 -0.36 0.5 -0.54 0.86 -0.44 s0.54 0.5 0.44 0.86 c-0.5 1.56 -1.5 2.92 -2.8 3.86 c-1.3 0.92 -2.86 1.48 -4.58 1.48 c-10.14 0 -10.14 -15.26 0 -15.26 c1.72 0 3.28 0.54 4.58 1.46 c1.3 0.96 2.3 2.3 2.8 3.88 l0 0 z M34.160000000000004 15.24 c-0.2 -0.34 -0.08 -0.72 0.24 -0.92 c0.34 -0.18 0.74 -0.08 0.92 0.26 c0.32 0.52 0.76 0.98 1.28 1.26 c0.48 0.3 1.06 0.48 1.68 0.48 c0.96 0 1.82 -0.38 2.42 -1.02 c0.64 -0.62 1.02 -1.5 1.02 -2.48 c0 -0.96 -0.38 -1.84 -1.02 -2.46 c-0.6 -0.62 -1.46 -1.02 -2.42 -1.02 c-0.62 0 -1.18 0.16 -1.68 0.46 c-0.52 0.3 -0.96 0.74 -1.28 1.26 c-0.18 0.34 -0.58 0.46 -0.92 0.28 c-0.32 -0.18 -0.44 -0.6 -0.24 -0.94 c0.42 -0.74 1.02 -1.36 1.74 -1.78 s1.54 -0.64 2.38 -0.64 c1.34 0 2.54 0.54 3.42 1.42 c0.84 0.88 1.38 2.08 1.38 3.42 s-0.54 2.54 -1.38 3.42 c-0.88 0.9 -2.08 1.44 -3.42 1.44 c-0.84 0 -1.66 -0.24 -2.38 -0.64 c-0.72 -0.44 -1.32 -1.06 -1.74 -1.8 l0 0 z M67.98 6.42 c-0.16 -0.36 0.02 -0.72 0.34 -0.88 c0.36 -0.12 0.74 0.04 0.88 0.38 l2.08 5.06 l2.06 -5.06 c0.12 -0.34 0.52 -0.5 0.86 -0.38 c0.34 0.16 0.5 0.52 0.38 0.88 l-2.7 6.58 c-0.22 0.54 -1 0.54 -1.24 0 l-2.66 -6.58 l0 0 z M76.36 5.92 c0.14 -0.34 0.54 -0.5 0.86 -0.38 c0.34 0.16 0.5 0.52 0.36 0.88 l-5.7 13.98 c-0.24 0.56 -1 0.56 -1.24 0 l-5.7 -13.98 c-0.12 -0.36 0.02 -0.72 0.38 -0.88 c0.34 -0.12 0.72 0.04 0.86 0.38 l5.1 12.48 l5.08 -12.48 l0 0 z M104.94 8.18 c0.38 0 0.68 0.28 0.68 0.66 c0 0.36 -0.3 0.66 -0.68 0.66 l-3.58 0 l0 1.34 l2.34 0 c0.38 0 0.68 0.3 0.68 0.68 c0 0.36 -0.3 0.66 -0.68 0.66 l-3 0 c-0.38 0 -0.68 -0.3 -0.68 -0.66 l0 -2.68 c0 -0.38 0.3 -0.66 0.68 -0.66 l4.24 0 l0 0 z M103.7 13.52 c0.38 0 0.68 0.3 0.68 0.66 c0 0.38 -0.3 0.68 -0.68 0.68 l-2.34 0 l0 1.32 l3.58 0 c0.38 0 0.68 0.3 0.68 0.68 c0 0.36 -0.3 0.66 -0.68 0.66 l-4.24 0 c-0.38 0 -0.68 -0.3 -0.68 -0.66 l0 -2.68 c0 -0.36 0.3 -0.66 0.68 -0.66 l3 0 l0 0 z M104.94 18.86 c0.38 0 0.68 0.3 0.68 0.68 c0 0.36 -0.3 0.66 -0.68 0.66 l-6.92 0 c-0.36 0 -0.66 -0.3 -0.66 -0.66 l0 -13.38 c0 -0.36 0.3 -0.66 0.66 -0.66 l6.92 0 c0.38 0 0.68 0.3 0.68 0.66 c0 0.38 -0.3 0.68 -0.68 0.68 l-6.24 0 l0 12.02 l6.24 0 l0 0 z M155.64000000000001 17.54 c-0.48 0 -1.42 0.14 -1.42 -0.68 c0 -1.3 2.12 -0.02 2.12 -1.34 c0 -0.4 -0.28 -0.68 -0.7 -0.68 l-2.34 0 c-0.88 0 -0.88 -1.32 0 -1.32 l2.34 0 c1.86 0 2.72 2.18 1.44 3.44 c-0.36 0.36 -0.86 0.58 -1.44 0.58 l0 0 z M153.3 9.48 c-0.88 0 -0.88 -1.34 0 -1.34 l2.34 0 c1.86 0 2.72 2.22 1.44 3.46 c-0.68 0.66 -1.36 0.58 -2.18 0.58 c-0.88 0 -0.88 -1.34 0 -1.34 c0.54 0 1.44 0.14 1.44 -0.68 c0 -0.38 -0.28 -0.68 -0.7 -0.68 l-2.34 0 l0 0 z M151.28 19.56 c0 0.88 -1.34 0.88 -1.34 0 l0 -13.44 c0 -0.36 0.3 -0.68 0.66 -0.68 l5.28 0 c2.74 0 4.64 2.16 4.64 4.68 c0 0.94 -0.24 1.88 -0.82 2.72 c2.12 3.08 -0.06 7.4 -3.8 7.4 l-2.6 0 c-0.88 0 -0.88 -1.36 0 -1.36 l2.6 0 c3.06 0 4.22 -3.74 2.46 -5.54 c-0.78 -0.84 0.82 -1.08 0.82 -3.18 c0 -1.84 -1.46 -3.36 -3.3 -3.36 l-4.6 0 l0 12.76 l0 0 z M185.18 10.82 l-2.7 -4.54 c-0.2 -0.34 -0.1 -0.74 0.24 -0.92 c0.3 -0.2 0.72 -0.1 0.9 0.22 l2.16 3.66 l2.16 -3.66 c0.2 -0.32 0.62 -0.42 0.92 -0.22 c0.32 0.18 0.42 0.58 0.24 0.92 l-2.72 4.56 c-0.3 0.52 -0.9 0.48 -1.2 -0.02 l0 0 z M191.22 5.58 c0.2 -0.34 0.6 -0.42 0.92 -0.22 c0.3 0.2 0.4 0.6 0.2 0.92 l-4.54 7.3 l0 6.16 c0 0.38 -0.32 0.68 -0.68 0.68 s-0.68 -0.3 -0.68 -0.68 l0 -6.32 c0 -0.12 0.04 -0.26 0.1 -0.38 l4.68 -7.46 l0 0 z M185.12 19.74 c0 0.38 -0.3 0.68 -0.66 0.68 c-0.38 0 -0.68 -0.3 -0.68 -0.68 l0 -6.16 l-4.56 -7.3 c-0.18 -0.32 -0.1 -0.72 0.22 -0.92 c0.3 -0.2 0.72 -0.12 0.92 0.22 l4.64 7.42 c0.08 0.14 0.12 0.26 0.12 0.4 l0 6.34 l0 0 z M247.77999999999997 19.52 c0 0.38 -0.3 0.68 -0.68 0.68 s-0.68 -0.3 -0.68 -0.68 l0 -6.3 l-2.74 3.94 c-0.22 0.3 -0.66 0.38 -0.96 0.18 c-0.06 -0.06 -0.12 -0.12 -0.16 -0.18 l-2.74 -3.94 l0 6.3 c0 0.38 -0.3 0.68 -0.7 0.68 c-0.36 0 -0.66 -0.3 -0.66 -0.68 l0 -8.46 l0 0 c0 -0.2 0.1 -0.42 0.28 -0.54 c0.3 -0.22 0.74 -0.14 0.96 0.16 l3.4 4.92 l3.44 -4.9 c0.12 -0.18 0.32 -0.3 0.56 -0.3 c0.38 0 0.68 0.3 0.68 0.66 l0 8.46 l0 0 z M237.1 19.52 c0 0.38 -0.3 0.68 -0.68 0.68 s-0.68 -0.3 -0.68 -0.68 l0 -13.56 c0 -0.38 0.3 -0.68 0.68 -0.68 s0.68 0.3 0.68 0.68 l0 13.56 l0 0 z M250.5 19.52 c0 0.38 -0.3 0.68 -0.7 0.68 c-0.36 0 -0.66 -0.3 -0.66 -0.68 l0 -13.56 c0 -0.38 0.3 -0.68 0.66 -0.68 c0.4 0 0.7 0.3 0.7 0.68 l0 13.56 l0 0 z M246.79999999999998 5.5600000000000005 c0.22 -0.3 0.64 -0.38 0.96 -0.16 c0.3 0.22 0.36 0.64 0.16 0.94 l-4.24 6.08 c-0.22 0.32 -0.66 0.4 -0.96 0.16 c-0.06 -0.04 -0.12 -0.1 -0.16 -0.18 l-4.24 -6.06 c-0.2 -0.3 -0.14 -0.72 0.16 -0.94 s0.74 -0.14 0.96 0.16 l3.66 5.3 l3.7 -5.3 l0 0 z M276.28 10.82 l-2.7 -4.54 c-0.2 -0.34 -0.1 -0.74 0.24 -0.92 c0.3 -0.2 0.72 -0.1 0.9 0.22 l2.16 3.66 l2.16 -3.66 c0.2 -0.32 0.62 -0.42 0.92 -0.22 c0.32 0.18 0.42 0.58 0.24 0.92 l-2.72 4.56 c-0.3 0.52 -0.9 0.48 -1.2 -0.02 l0 0 z M282.32 5.58 c0.2 -0.34 0.6 -0.42 0.92 -0.22 c0.3 0.2 0.4 0.6 0.2 0.92 l-4.54 7.3 l0 6.16 c0 0.38 -0.32 0.68 -0.68 0.68 s-0.68 -0.3 -0.68 -0.68 l0 -6.32 c0 -0.12 0.04 -0.26 0.1 -0.38 l4.68 -7.46 l0 0 z M276.21999999999997 19.74 c0 0.38 -0.3 0.68 -0.66 0.68 c-0.38 0 -0.68 -0.3 -0.68 -0.68 l0 -6.16 l-4.56 -7.3 c-0.18 -0.32 -0.1 -0.72 0.22 -0.92 c0.3 -0.2 0.72 -0.12 0.92 0.22 l4.64 7.42 c0.08 0.14 0.12 0.26 0.12 0.4 l0 6.34 l0 0 z M334.34000000000003 6.02 c0.82 0.28 0.38 1.56 -0.46 1.26 c-1.8 -0.64 -3.96 -0.98 -5.28 0.48 c-1.08 1.14 -1.36 3.24 0.08 4.48 c1.74 1.56 4.22 1.22 4.36 3.34 c0.06 1.12 -0.92 1.94 -2 2.02 c-1.3 0.08 -2.92 -0.24 -4.24 -1.2 c-0.7 -0.5 0.08 -1.58 0.78 -1.08 c1.54 1.12 4.24 1.32 4.12 0.32 c-0.08 -0.94 -2.06 -0.78 -3.92 -2.4 c-2.9 -2.54 -1.14 -7.6 2.98 -7.8 c1.2 -0.06 2.18 0.1 3.58 0.58 l0 0 z M326.54 19.24 c-0.76 -0.4 -0.14 -1.58 0.64 -1.18 c3.08 1.64 7.26 1.22 7.26 -2.48 c0 -2.74 -3.6 -3.24 -4.62 -4.06 c-1.6 -1.26 -0.76 -4.8 4.22 -2.78 c0.78 0.32 0.3 1.56 -0.52 1.22 c-3.02 -1.22 -3.54 0.02 -2.88 0.54 c0.74 0.56 5.12 1.36 5.12 5.08 c0 3.66 -3.24 5.38 -6.98 4.48 c-0.68 -0.14 -1.46 -0.4 -2.24 -0.82 l0 0 z M330.92 16.28 l0 0 l0 0 z M360.16 19.54 c0 0.36 -0.3 0.66 -0.66 0.66 c-0.38 0 -0.68 -0.3 -0.68 -0.66 l0 -13.38 c0 -0.36 0.3 -0.66 0.68 -0.66 c0.36 0 0.66 0.3 0.66 0.66 l0 13.38 l0 0 z M357.48 19.54 c0 0.36 -0.3 0.66 -0.66 0.66 c-0.38 0 -0.68 -0.3 -0.68 -0.66 l0 -13.38 c0 -0.36 0.3 -0.66 0.68 -0.66 c0.36 0 0.66 0.3 0.66 0.66 l0 13.38 l0 0 z M386.02 17.54 l-1.32 0 c-0.36 0 -0.66 -0.3 -0.66 -0.68 c0 -0.36 0.3 -0.66 0.66 -0.66 l1.32 0 c1.98 0 3.24 -1.46 3.24 -3.36 c0 -1.88 -1.26 -3.34 -3.24 -3.34 l-0.66 0 l0 4.68 c0 0.38 -0.28 0.68 -0.66 0.68 c-0.36 0 -0.66 -0.3 -0.66 -0.68 l0 -5.34 c0 -0.38 0.3 -0.68 0.66 -0.68 l1.32 0 c2.74 0 4.56 2.06 4.56 4.68 c0 2.64 -1.82 4.7 -4.56 4.7 l0 0 z M382.7 19.54 c0 0.36 -0.3 0.66 -0.68 0.66 c-0.36 0 -0.66 -0.3 -0.66 -0.66 l0 -13.38 c0 -0.36 0.3 -0.66 0.66 -0.66 l4 0 c4.34 0 7.36 3.12 7.36 7.34 c0 4.24 -3.02 7.36 -7.36 7.36 l-1.34 0 c-0.36 0 -0.66 -0.3 -0.66 -0.66 c0 -0.38 0.3 -0.68 0.66 -0.68 l1.34 0 c3.58 0 6.02 -2.52 6.02 -6.02 c0 -3.48 -2.44 -6 -6.02 -6 l-3.32 0 l0 12.7 l0 0 z M421.62 8.18 c0.38 0 0.68 0.28 0.68 0.66 c0 0.36 -0.3 0.66 -0.68 0.66 l-3.58 0 l0 1.34 l2.34 0 c0.38 0 0.68 0.3 0.68 0.68 c0 0.36 -0.3 0.66 -0.68 0.66 l-3 0 c-0.38 0 -0.68 -0.3 -0.68 -0.66 l0 -2.68 c0 -0.38 0.3 -0.66 0.68 -0.66 l4.24 0 l0 0 z M420.38 13.52 c0.38 0 0.68 0.3 0.68 0.66 c0 0.38 -0.3 0.68 -0.68 0.68 l-2.34 0 l0 1.32 l3.58 0 c0.38 0 0.68 0.3 0.68 0.68 c0 0.36 -0.3 0.66 -0.68 0.66 l-4.24 0 c-0.38 0 -0.68 -0.3 -0.68 -0.66 l0 -2.68 c0 -0.36 0.3 -0.66 0.68 -0.66 l3 0 l0 0 z M421.62 18.86 c0.38 0 0.68 0.3 0.68 0.68 c0 0.36 -0.3 0.66 -0.68 0.66 l-6.92 0 c-0.36 0 -0.66 -0.3 -0.66 -0.66 l0 -13.38 c0 -0.36 0.3 -0.66 0.66 -0.66 l6.92 0 c0.38 0 0.68 0.3 0.68 0.66 c0 0.38 -0.3 0.68 -0.68 0.68 l-6.24 0 l0 12.02 l6.24 0 l0 0 z"></path></g></svg>