<?xml version="1.0" encoding="UTF-8"?>
<svg width="600.77" height="121.7" enable-background="new 0 0 1024 1024" version="1.1" viewBox="0 0 600.77 121.7" xml:space="preserve" xmlns="http://www.w3.org/2000/svg">
        <g transform="matrix(.96089 0 0 .92154 -347.5 -357.74)" fill="#dbb981">
            
 <!--ORIGINAL L-->
            <path d="m377.35 476c7.1e-4 7.6577 0.20655 14.824-0.075 21.97-0.17026 4.3214 1.2395 5.8583 5.671 5.7862 13.979-0.22776 27.964-0.0974 41.946-0.0755 5.7725 9e-3 7.1462 1.3799 7.1653 6.9627 0.021 6.1553-1.2931 7.6668-7.0023 7.6782-18.976 0.0378-37.953-0.0619-56.928 0.0857-4.7774 0.0371-6.491-1.9435-6.481-6.5683 0.0808-37.619 0.086-75.239 4.9e-4 -112.86-0.0108-4.746 1.8886-6.8019 6.5952-6.3212 0.98786 0.10092 2.0105 0.11341 2.992-0.019 4.6097-0.62167 6.2035 1.4284 6.1756 5.9562-0.13247 21.472-0.0591 42.946-0.0592 64.419 0 4.1615-6e-5 8.323 1.5e-4 12.984z"/>
            
 <!--COPY L-->
            <path d="m396.81 458.82c4.6e-4 6.0814 0.13306 11.772-0.0483 17.448-0.10968 3.4319 0.79847 4.6524 3.6533 4.5951 9.0052-0.18088 18.014-0.0773 27.022-0.06 3.7187 7e-3 4.6036 1.0959 4.6159 5.5295 0.0135 4.8883-0.83304 6.0887-4.5109 6.0977-12.225 0.03-24.45-0.0492-36.674 0.0681-3.0777 0.0295-4.1815-1.5434-4.1751-5.2163 0.0521-29.876 0.0554-59.752 3.2e-4 -89.628-7e-3 -3.7691 1.2167-5.4018 4.2487-5.02 0.63639 0.0801 1.2952 0.0901 1.9275-0.0151 2.9696-0.49371 3.9963 1.1344 3.9783 4.7302-0.0853 17.052-0.0381 34.106-0.0381 51.159 0 3.3049-4e-5 6.6098 1e-4 10.312z" stroke-width=".71526"/>
        </g>
        <g transform="matrix(.88872 0 0 .8818 -303.94 -339.89)" fill="#dbb981">
            
 <!--ORIGINAL O-->
            <path d="m437.59 466.02c-2.607-22.881 2.5839-42.841 19.512-58.588 16.199-15.069 35.599-19.91 57.234-16.324 28.297 4.6903 53.282 29.818 53.142 65.336-0.11041 27.951-18.753 60.187-56.856 64.575-35.636 4.1041-65.331-16.869-72.108-50.167-0.29791-1.4636-0.60043-2.9264-0.92374-4.8317m15.91-20.88c-0.5364 5.9375-1.1794 11.785-0.36529 17.846 3.568 26.568 24.752 44.439 50.642 43.411 30.776-1.2223 51.853-27.643 47.706-58.06-3.1229-22.903-22.885-41.675-43.997-43.136-29.971-2.0742-49.909 18.08-53.986 39.939z"/>
            
 <!---COPY O-->
            <path d="m466.15 461.64c-1.455-13.105 1.4422-24.537 10.89-33.556 9.0412-8.631 19.869-11.404 31.944-9.3496 15.793 2.6864 29.738 17.078 29.66 37.421-0.0616 16.009-10.466 34.472-31.733 36.985-19.89 2.3506-36.463-9.6615-40.245-28.733-0.16627-0.8383-0.33511-1.6761-0.51557-2.7673m8.8796-11.959c-0.29938 3.4007-0.65822 6.7496-0.20388 10.221 1.9914 15.217 13.815 25.452 28.265 24.863 17.177-0.70007 28.941-15.833 26.626-33.254-1.7429-13.118-12.773-23.869-24.556-24.706-16.727-1.188-27.855 10.355-30.131 22.875z" stroke-width=".56539"/>
        </g>
        <g transform="matrix(.96089 0 0 .91481 -350.74 -357.14)" fill="#dbb981">
            
 <!--ORIGINAL V-->
            <path d="m632.85 457.06c5.1204 12.987 10.091 25.616 14.999 38.088 3.4709-0.45222 3.579-2.7816 4.269-4.5147 11.818-29.682 23.599-59.378 35.372-89.077 2.1117-5.3267 11.345-8.6593 16.195-5.6629 2.6208 1.6191 1.6979 4.022 0.81195 6.2291-4.3395 10.811-8.7015 21.614-13.063 32.416-10.592 26.235-21.138 52.487-31.812 78.689-3.12 7.6594-6.9689 9.4649-14.904 7.7329-3.447-0.75244-4.6894-3.4705-5.8279-6.2758-5.2573-12.954-10.508-25.911-15.709-38.887-9.6594-24.096-19.29-48.203-28.918-72.312-2.6454-6.6246-1.7109-8.0011 5.3616-8.0626 8.9792-0.078 8.9963-0.0847 12.29 8.298 6.9382 17.656 13.856 35.32 20.933 53.339z"/>
            
 <!---COPY V-->
            <path d="m639.84 427.68c2.9276 6.8629 5.7693 13.537 8.5758 20.128 1.9845-0.23897 2.0463-1.47 2.4409-2.3858 6.7569-15.685 13.493-31.378 20.225-47.073 1.2074-2.8149 6.4866-4.576 9.2597-2.9926 1.4985 0.85563 0.97078 2.1254 0.46425 3.2918-2.4812 5.7133-4.9752 11.422-7.4687 17.13-6.0558 13.864-12.086 27.737-18.189 41.583-1.7839 4.0477-3.9845 5.0018-8.5212 4.0865-1.9708-0.39763-2.6812-1.834-3.3322-3.3165-3.0059-6.8455-6.0078-13.693-8.982-20.55-5.5229-12.734-11.029-25.473-16.534-38.214-1.5125-3.5008-0.97821-4.2282 3.0655-4.2607 5.134-0.0412 5.1437-0.0448 7.0272 4.3851 3.967 9.3305 7.9226 18.665 11.969 28.187z" stroke-width=".54968"/>
        </g>
        <g transform="matrix(.96089 0 0 .88554 -322.59 -341.3)" fill="#dbb981">
            
 <!--ORIGINAL S-->
            <path d="m727.82 504.74c10.878 2.1465 20.354-0.39481 28.193-7.4248 8.6771-7.7819 7.3657-20.499-2.3778-27.023-7.6345-5.1123-16.586-6.7057-25.264-8.9704-5.6486-1.4742-11.153-3.2915-16.429-5.8402-15.203-7.344-20.052-21.488-19.088-34.423 1.1266-15.115 10.223-25.154 25.865-29.219 18.392-4.7791 34.892-0.47195 49.705 10.963 5.238 4.0434 6.0616 7.0457 3.5329 10.364-3.238 4.2492-9.2664 4.9523-13.691 1.3484-11.219-9.1386-23.562-12.087-37.263-6.6437-8.7397 3.4722-12.174 9.4347-11.729 18.772 0.26471 5.5521 3.3832 9.2289 7.6292 12.205 6.1359 4.3008 13.35 5.8756 20.383 7.8757 8.3273 2.3681 16.469 5.0005 24.129 9.3046 22.406 12.59 21.61 46.013-1.8464 58.632-19.721 10.609-47.323 7.4648-64.013-7.5371-1.3568-1.2194-2.6652-2.5366-3.7744-3.979-2.9621-3.852-2.765-7.3216 0.41852-10.19 4.2769-3.8538 8.4121-4.2448 11.938-0.73569 6.5456 6.5145 13.935 11.304 23.683 12.522z"/>
            
 <!---COPY S-->
            <path d="m733.1 487.01c6.3531 1.4254 11.888-0.26216 16.466-4.9306 5.0678-5.1677 4.3019-13.612-1.3887-17.945-4.4589-3.3949-9.6871-4.453-14.755-5.9569-3.299-0.97896-6.5138-2.1858-9.5953-3.8783-8.8795-4.8769-11.711-14.27-11.148-22.859 0.65799-10.038 5.9706-16.704 15.106-19.403 10.742-3.1736 20.378-0.31339 29.03 7.28 3.0592 2.6851 3.5403 4.6788 2.0634 6.8823-1.8911 2.8217-5.412 3.2887-7.996 0.89545-6.5526-6.0686-13.761-8.0263-21.763-4.4118-5.1044 2.3058-7.1103 6.2653-6.8502 12.466 0.15462 3.687 1.9759 6.1286 4.4558 8.1049 3.5836 2.856 7.797 3.9018 11.905 5.23 4.8635 1.5725 9.6186 3.3206 14.092 6.1788 13.086 8.3603 12.621 30.556-1.0784 38.935-11.518 7.0452-27.639 4.9571-37.387-5.0051-0.79239-0.80978-1.5566-1.6845-2.2044-2.6423-1.73-2.558-1.6148-4.862 0.24445-6.7668 2.4979-2.5592 4.913-2.8188 6.9723-0.48857 3.8229 4.326 8.1387 7.5068 13.832 8.3151z" stroke-width=".62277"/>
        </g>
        <g transform="matrix(.96089 0 0 .92025 -315.33 -357.02)">
            
 <!--ORIGINAL I-->
            
            
 <!--COPY I-->
            <path d="m824.51 475c5.9e-4 -25.157 0.0157-49.814-0.0214-74.471-4e-3 -2.7866 1.1899-6.3369-5.2384-7.3026-7.1198-1.0696-15.136-1.5333-22.068 0.35459-4.8048 1.3084-3.7924 4.3433-3.7961 6.8191-0.0346 23.657-0.0327 47.315-0.0423 70.972-4e-3 13.161-0.0414 26.323 3e-3 39.484 0.0181 6.333 2.0628 7.4328 13.443 7.4861 15.235 0.0714 17.596-0.84205 17.668-7.3569 0.13-11.828 0.0453-23.657 0.0517-35.986z" fill="#dbb981" stroke-width="1.3749"/>
        <path d="m804.27 470.95c-1.9e-4 -19.986-7e-3 -39.574 0.01-59.163 2e-3 -2.2138-0.35619-5.0343 1.5685-5.8015 2.1317-0.84971 4.5314-1.2181 6.6072 0.2817 1.4385 1.0395 1.1354 3.4505 1.1364 5.4174 0.0118 18.794 0.01 37.589 0.013 56.383 2e-3 10.456 0.0133 20.912-4.5e-4 31.368-0.01 5.0312-0.61768 5.9049-4.0248 5.9473-4.5614 0.0568-5.2684-0.66896-5.2897-5.8447-0.0402-9.397-0.0139-18.794-0.0143-28.589z" fill="#fff" stroke-width=".67054" style="mix-blend-mode:normal"/></g>
        <g transform="matrix(.96089 0 0 .91984 -314.17 -356.92)" fill="#dbb981">
            
 <!--ORIGINAL D-->
            <path d="m945.52 425.66c12.256 27.572 7.324 57.462-12.498 75.845-12.315 11.421-27.522 15.952-43.826 16.686-13.291 0.59869-26.631 0.0347-39.946 0.19665-4.7788 0.0581-6.5431-2.0767-6.5371-6.6214 0.05-37.788 0.0458-75.577 0.0104-113.37-4e-3 -3.9574 1.6832-5.7683 5.7062-5.749 15.148 0.0727 30.358-0.82935 45.432 0.23636 22.604 1.5981 40.78 11.384 51.659 32.771m-11.903 12.271c-5.1945-15.547-16.112-24.93-31.734-28.926-12.932-3.3078-26.171-1.518-39.281-1.71-3.7332-0.0547-3.3231 3.0547-3.3249 5.5067-0.0202 28.65 0.0363 57.3-0.0609 85.95-0.0122 3.6065 1.0623 5.076 4.8466 4.9819 8.4898-0.21119 16.997 0.1705 25.481-0.13977 7.7004-0.28165 15.1-2.1672 22.047-5.6831 20.525-10.388 29.652-34.751 22.025-59.98z"/>
            
 <!--COPY D-->
            <path d="m924.36 437.42c6.8625 16.678 4.1008 34.758-6.9976 45.877-6.8951 6.9084-15.41 9.6489-24.538 10.093-7.4416 0.36214-14.911 0.021-22.366 0.11896-2.6756 0.0351-3.6635-1.2561-3.6602-4.0052 0.028-22.858 0.0256-45.715 6e-3 -68.573-2e-3 -2.3938 0.94241-3.4892 3.1949-3.4775 8.4816 0.044 16.998-0.50166 25.437 0.14297 12.656 0.96669 22.833 6.886 28.924 19.823m-6.6644 7.4223c-2.9084-9.4044-9.0214-15.08-17.768-17.497-7.2407-2.0008-14.653-0.91823-21.994-1.0344-2.0902-0.0331-1.8606 1.8477-1.8616 3.3309-0.0113 17.33 0.0203 34.66-0.0341 51.99-7e-3 2.1815 0.59476 3.0704 2.7136 3.0135 4.7535-0.12774 9.5168 0.10314 14.267-0.0845 4.3115-0.17037 8.4548-1.3109 12.345-3.4376 11.492-6.2834 16.602-21.02 12.332-36.281z" stroke-width=".58196"/>
        </g>
    </svg>
