<?xml version="1.0" encoding="UTF-8"?>
<svg width="85.62" height="33.564" enable-background="new 0 0 1024 1024" version="1.1" viewBox="0 0 292.25 343.69" xml:space="preserve" xmlns="http://www.w3.org/2000/svg"><g fill="#dbb981">
        <path d="m-82.238 214.9c-3.8366 12.938-8.9476 24.847-16.87 35.353-10.44 13.845-24.736 22.04-40.984 27.124-10.019 3.1346-20.325 4.9642-30.766 6.0779-4.846 0.51691-8.6478 3.3248-12.306 6.2471-14.954 11.946-25.511 27.077-32.265 44.912-3.4008 8.9796-6.3499 10.667-15.563 7.8184-14.8-4.5754-26.776-13.214-35.773-25.87-2.6703-3.7562-4.3952-7.9304-3.9112-12.618 0.4178-4.0472-1.2042-6.3802-4.7684-8.2361-5.0753-2.6427-9.2559-6.5596-12.559-11.248-5.5646-7.8998-3.0909-14.242 6.3578-15.735 25.497-4.0284 48.59-13.687 69.285-29.067 3.0656-2.2781 5.855-4.9333 8.7136-7.4798 0.58449-0.52069 0.90603-1.3366 1.346-2.0121-1.1664-2.5493-3.6223-3.0365-5.6083-4.0733-21.945-11.457-40.024-26.904-51.321-49.418-3.1042-6.1863-5.4516-12.523-4.4987-19.629 0.31107-2.3198-0.83509-4.1425-1.9421-6.039-8.7123-14.926-15.479-30.55-17.535-47.941-0.6759-5.7184-0.6248-11.388 1.0584-16.81 1.0022-3.2282 0.8435-5.9605 0.025-9.1388-4.0494-15.73-6.5454-31.611-2.5508-47.772 0.6718-2.7179 1.6839-5.4339 3.018-7.8905 3.9635-7.2983 9.767-7.5639 14.088-0.54382 5.3313 8.6624 10.636 17.307 17.33 25.03 6.6862 7.7134 14.154 14.579 22.098 20.947 1.2408 0.99463 2.3847 2.4254 4.5025 1.9353 0-6.5541-0.0537-13.12 0.0114-19.685 0.12848-12.969 3.1546-25.354 7.8519-37.358 0.90143-2.3035 2.2562-4.4608 3.6146-6.5471 1.9725-3.0296 4.4905-5.6851 8.456-5.1624 3.8671 0.5098 4.4944 4.0699 5.3651 7.0833 6.4861 22.448 18.903 41.751 31.966 60.743 8.0286 11.672 15.766 23.542 21.398 36.62 3.1064 7.2128 5.3241 14.664 6.1757 22.525 0.21684 2.0015 0.33285 4.3158 2.3713 6.0714 2.4209-1.7253 3.4989-4.4186 5.0731-6.6686 8.6443-12.356 19.342-21.98 34.268-26.038 18.231-4.9567 35.068 3.3283 42.21 20.864 1.02 2.5044 2.4998 4.1028 5.0096 5.1265 2.7597 1.1256 5.5245 2.4217 7.9633 4.1109 4.4359 3.0726 4.0707 7.2319-0.62467 9.7592-0.7312 0.39355-1.4968 0.74731-2.2828 1.0115-18.316 6.1567-27.224 19.663-30.19 38.081-1.9007 11.804-3.8274 23.623-7.2387 35.542m-65.496-45.999c-4.4017-11.863-11.35-22.182-19.242-31.952-13.252-16.407-30.178-28.587-46.991-40.876-18.968-13.865-38.34-27.241-52.763-46.281-1.2576-1.66-2.6458-3.2211-4.5757-5.5574-0.3863 18.803 4.1982 35.244 12.257 50.845 4.0716 7.8819 9.2555 15.019 14.644 22.027 1.25 1.6259 2.3163 3.686 0.62242 5.4292-1.6473 1.6952-3.8508 0.91763-5.4824-0.31613-3.1807-2.4052-6.1278-5.1176-9.2803-7.5627-2.1072-1.6344-3.3128-4.5536-6.3931-5.0068-1.3812 2.3625-0.0671 4.1942 0.50151 5.9785 6.922 21.721 18.664 40.396 35.467 55.863 1.5232 1.402 3.8409 2.9143 2.2868 5.3913-1.65 2.6299-4.1105 1.3367-6.2542 0.44406-1.2236-0.50952-2.3596-1.2287-3.5375-1.849-2.5473-1.3416-4.6617-3.6539-7.7964-3.8307-1.1265 2.4447 0.62461 3.7816 1.5241 5.1697 8.5032 13.122 20.267 22.841 33.146 31.353 9.7792 6.4636 20.444 11.144 31.286 15.475 3.7379 1.493 4.6444 4.5108 1.707 6.1012-6.5906 3.5683-11.256 9.2945-16.743 14.08-19.859 17.317-42.506 29.014-68.277 34.7-2.7958 0.61682-5.982 0.20678-8.7103 2.4189 2.5149 3.5588 6.2077 4.624 9.8466 5.5387 5.5295 1.3901 11.118 1.8422 16.798 0.51593 2.5559-0.59681 5.2113-0.091 6.3642 2.6478 1.1322 2.6896-0.28 4.8096-2.3978 6.4996-2.6478 2.1128-5.7254 3.3027-8.88 4.446-2.5835 0.93616-5.7283 0.48096-7.8505 3.0104 0.1469 0.6231 0.173 1.3192 0.46331 1.878 4.7987 9.2377 12.565 15.38 21.448 20.28 5.3742 2.9642 6.2004 2.6907 8.5153-2.8476 7.0776-16.933 17.981-31.059 31.599-43.175 5.7615-5.126 11.861-9.3231 20.052-10.249 8.5512-0.9671 17.074-2.7304 25.417-4.8881 23.921-6.1866 40.376-20.854 49.271-44.077 5.1492-13.443 7.5693-27.477 10.114-41.521 3.0135-16.631 6.8416-32.843 23.239-42.109 1.5078-0.85209 1.9634-2.2697 1.5502-3.8682-3.1066-12.02-16.535-24.518-31.262-17.844-7.0817 3.2092-12.866 8.1928-18.118 13.884-7.5241 8.1539-12.137 18.319-18.912 26.958-2.0079 2.5603-2.3351 4.8369-1.6058 7.7512 2.5859 10.333 2.3805 20.76 0.59005 31.171-0.40114 2.3324-0.49479 5.7661-3.5782 5.8856-3.8052 0.1474-2.6489-3.9013-3.7146-6.078-0.2744-0.56049-0.14151-1.3126-0.23289-1.9716-1.0997-7.9305-2.8393-15.699-6.1117-23.879m-14.452-48.444c3.4089 2.9516 5.5378 7.2276 9.7356 9.8709 0.22658-2.8572-0.52325-5.0564-1.2053-7.2672-3.9093-12.673-10.107-24.211-17.405-35.212-11.484-17.312-23.973-34.018-32.146-53.331-0.40986-0.96844-0.64663-2.3674-2.2219-2.2299-0.99224 0.57438-1.2795 1.4693-1.536 2.4782-2.7845 10.953-2.4702 22.1-1.8055 33.209 0.61687 10.31 5.1114 18.136 14.121 24.193 11.72 7.8787 22.191 17.508 32.463 28.289z"/>
        <g transform="matrix(.96089 0 0 .92154 -362.47 -236.44)">
            
 <!--ORIGINAL L-->
            <path d="m377.35 476c7.1e-4 7.6577 0.20655 14.824-0.075 21.97-0.17026 4.3214 1.2395 5.8583 5.671 5.7862 13.979-0.22776 27.964-0.0974 41.946-0.0755 5.7725 9e-3 7.1462 1.3799 7.1653 6.9627 0.021 6.1553-1.2931 7.6668-7.0023 7.6782-18.976 0.0378-37.953-0.0619-56.928 0.0857-4.7774 0.0371-6.491-1.9435-6.481-6.5683 0.0808-37.619 0.086-75.239 4.9e-4 -112.86-0.0108-4.746 1.8886-6.8019 6.5952-6.3212 0.98786 0.10092 2.0105 0.11341 2.992-0.019 4.6097-0.62167 6.2035 1.4284 6.1756 5.9562-0.13247 21.472-0.0591 42.946-0.0592 64.419 0 4.1615-6e-5 8.323 1.5e-4 12.984z"/>
            

 <!--COPY L-->
            <path d="m396.81 458.82c4.6e-4 6.0814 0.13306 11.772-0.0483 17.448-0.10968 3.4319 0.79847 4.6524 3.6533 4.5951 9.0052-0.18088 18.014-0.0773 27.022-0.06 3.7187 7e-3 4.6036 1.0959 4.6159 5.5295 0.0135 4.8883-0.83304 6.0887-4.5109 6.0977-12.225 0.03-24.45-0.0492-36.674 0.0681-3.0777 0.0295-4.1815-1.5434-4.1751-5.2163 0.0521-29.876 0.0554-59.752 3.2e-4 -89.628-7e-3 -3.7691 1.2167-5.4018 4.2487-5.02 0.63639 0.0801 1.2952 0.0901 1.9275-0.0151 2.9696-0.49371 3.9963 1.1344 3.9783 4.7302-0.0853 17.052-0.0381 34.106-0.0381 51.159 0 3.3049-4e-5 6.6098 1e-4 10.312z" stroke-width=".71526"/>
        </g>
        <g transform="matrix(.88872 0 0 .8818 -318.91 -218.59)">
            

 <!--ORIGINAL O-->
            <path d="m437.59 466.02c-2.607-22.881 2.5839-42.841 19.512-58.588 16.199-15.069 35.599-19.91 57.234-16.324 28.297 4.6903 53.282 29.818 53.142 65.336-0.11041 27.951-18.753 60.187-56.856 64.575-35.636 4.1041-65.331-16.869-72.108-50.167-0.29791-1.4636-0.60043-2.9264-0.92374-4.8317m15.91-20.88c-0.5364 5.9375-1.1794 11.785-0.36529 17.846 3.568 26.568 24.752 44.439 50.642 43.411 30.776-1.2223 51.853-27.643 47.706-58.06-3.1229-22.903-22.885-41.675-43.997-43.136-29.971-2.0742-49.909 18.08-53.986 39.939z"/>
            

 <!---COPY O-->
            <path d="m466.15 461.64c-1.455-13.105 1.4422-24.537 10.89-33.556 9.0412-8.631 19.869-11.404 31.944-9.3496 15.793 2.6864 29.738 17.078 29.66 37.421-0.0616 16.009-10.466 34.472-31.733 36.985-19.89 2.3506-36.463-9.6615-40.245-28.733-0.16627-0.8383-0.33511-1.6761-0.51557-2.7673m8.8796-11.959c-0.29938 3.4007-0.65822 6.7496-0.20388 10.221 1.9914 15.217 13.815 25.452 28.265 24.863 17.177-0.70007 28.941-15.833 26.626-33.254-1.7429-13.118-12.773-23.869-24.556-24.706-16.727-1.188-27.855 10.355-30.131 22.875z" stroke-width=".56539"/>
        </g>
        <g transform="matrix(.96089 0 0 .91481 -365.71 -235.84)">
            

 <!--ORIGINAL V-->
            <path d="m632.85 457.06c5.1204 12.987 10.091 25.616 14.999 38.088 3.4709-0.45222 3.579-2.7816 4.269-4.5147 11.818-29.682 23.599-59.378 35.372-89.077 2.1117-5.3267 11.345-8.6593 16.195-5.6629 2.6208 1.6191 1.6979 4.022 0.81195 6.2291-4.3395 10.811-8.7015 21.614-13.063 32.416-10.592 26.235-21.138 52.487-31.812 78.689-3.12 7.6594-6.9689 9.4649-14.904 7.7329-3.447-0.75244-4.6894-3.4705-5.8279-6.2758-5.2573-12.954-10.508-25.911-15.709-38.887-9.6594-24.096-19.29-48.203-28.918-72.312-2.6454-6.6246-1.7109-8.0011 5.3616-8.0626 8.9792-0.078 8.9963-0.0847 12.29 8.298 6.9382 17.656 13.856 35.32 20.933 53.339z"/>
            

 <!---COPY V-->
            <path d="m639.84 427.68c2.9276 6.8629 5.7693 13.537 8.5758 20.128 1.9845-0.23897 2.0463-1.47 2.4409-2.3858 6.7569-15.685 13.493-31.378 20.225-47.073 1.2074-2.8149 6.4866-4.576 9.2597-2.9926 1.4985 0.85563 0.97078 2.1254 0.46425 3.2918-2.4812 5.7133-4.9752 11.422-7.4687 17.13-6.0558 13.864-12.086 27.737-18.189 41.583-1.7839 4.0477-3.9845 5.0018-8.5212 4.0865-1.9708-0.39763-2.6812-1.834-3.3322-3.3165-3.0059-6.8455-6.0078-13.693-8.982-20.55-5.5229-12.734-11.029-25.473-16.534-38.214-1.5125-3.5008-0.97821-4.2282 3.0655-4.2607 5.134-0.0412 5.1437-0.0448 7.0272 4.3851 3.967 9.3305 7.9226 18.665 11.969 28.187z" stroke-width=".54968"/>
        </g>
        <g transform="matrix(.96089 0 0 .88554 -337.56 -219.99)">
            

 <!--ORIGINAL S-->
            <path d="m727.82 504.74c10.878 2.1465 20.354-0.39481 28.193-7.4248 8.6771-7.7819 7.3657-20.499-2.3778-27.023-7.6345-5.1123-16.586-6.7057-25.264-8.9704-5.6486-1.4742-11.153-3.2915-16.429-5.8402-15.203-7.344-20.052-21.488-19.088-34.423 1.1266-15.115 10.223-25.154 25.865-29.219 18.392-4.7791 34.892-0.47195 49.705 10.963 5.238 4.0434 6.0616 7.0457 3.5329 10.364-3.238 4.2492-9.2664 4.9523-13.691 1.3484-11.219-9.1386-23.562-12.087-37.263-6.6437-8.7397 3.4722-12.174 9.4347-11.729 18.772 0.26471 5.5521 3.3832 9.2289 7.6292 12.205 6.1359 4.3008 13.35 5.8756 20.383 7.8757 8.3273 2.3681 16.469 5.0005 24.129 9.3046 22.406 12.59 21.61 46.013-1.8464 58.632-19.721 10.609-47.323 7.4648-64.013-7.5371-1.3568-1.2194-2.6652-2.5366-3.7744-3.979-2.9621-3.852-2.765-7.3216 0.41852-10.19 4.2769-3.8538 8.4121-4.2448 11.938-0.73569 6.5456 6.5145 13.935 11.304 23.683 12.522z"/>
            

 <!---COPY S-->
            <path d="m733.1 487.01c6.3531 1.4254 11.888-0.26216 16.466-4.9306 5.0678-5.1677 4.3019-13.612-1.3887-17.945-4.4589-3.3949-9.6871-4.453-14.755-5.9569-3.299-0.97896-6.5138-2.1858-9.5953-3.8783-8.8795-4.8769-11.711-14.27-11.148-22.859 0.65799-10.038 5.9706-16.704 15.106-19.403 10.742-3.1736 20.378-0.31339 29.03 7.28 3.0592 2.6851 3.5403 4.6788 2.0634 6.8823-1.8911 2.8217-5.412 3.2887-7.996 0.89545-6.5526-6.0686-13.761-8.0263-21.763-4.4118-5.1044 2.3058-7.1103 6.2653-6.8502 12.466 0.15462 3.687 1.9759 6.1286 4.4558 8.1049 3.5836 2.856 7.797 3.9018 11.905 5.23 4.8635 1.5725 9.6186 3.3206 14.092 6.1788 13.086 8.3603 12.621 30.556-1.0784 38.935-11.518 7.0452-27.639 4.9571-37.387-5.0051-0.79239-0.80978-1.5566-1.6845-2.2044-2.6423-1.73-2.558-1.6148-4.862 0.24445-6.7668 2.4979-2.5592 4.913-2.8188 6.9723-0.48857 3.8229 4.326 8.1387 7.5068 13.832 8.3151z" stroke-width=".62277"/>
        </g>
        </g><g transform="matrix(.96089 0 0 .92025 -330.3 -235.71)">
            

 <!--ORIGINAL I-->
            
            

 <!--COPY I-->
            <path d="m824.51 475c5.9e-4 -25.157 0.0157-49.814-0.0214-74.471-4e-3 -2.7866 1.1899-6.3369-5.2384-7.3026-7.1198-1.0696-15.136-1.5333-22.068 0.35459-4.8048 1.3084-3.7924 4.3433-3.7961 6.8191-0.0346 23.657-0.0327 47.315-0.0423 70.972-4e-3 13.161-0.0414 26.323 3e-3 39.484 0.0181 6.333 2.0628 7.4328 13.443 7.4861 15.235 0.0714 17.596-0.84205 17.668-7.3569 0.13-11.828 0.0453-23.657 0.0517-35.986z" fill="#dbb981" stroke-width="1.3749"/>
        <path d="m804.27 470.95c-1.9e-4 -19.986-7e-3 -39.574 0.01-59.163 2e-3 -2.2138-0.35619-5.0343 1.5685-5.8015 2.1317-0.84971 4.5314-1.2181 6.6072 0.2817 1.4385 1.0395 1.1354 3.4505 1.1364 5.4174 0.0118 18.794 0.01 37.589 0.013 56.383 2e-3 10.456 0.0133 20.912-4.5e-4 31.368-0.01 5.0312-0.61768 5.9049-4.0248 5.9473-4.5614 0.0568-5.2684-0.66896-5.2897-5.8447-0.0402-9.397-0.0139-18.794-0.0143-28.589z" fill="#fff" stroke-width=".67054" style="mix-blend-mode:normal"/></g>
        <g transform="matrix(.96089 0 0 .91984 -329.14 -235.62)" fill="#dbb981">
            

 <!--ORIGINAL D-->
            <path d="m945.52 425.66c12.256 27.572 7.324 57.462-12.498 75.845-12.315 11.421-27.522 15.952-43.826 16.686-13.291 0.59869-26.631 0.0347-39.946 0.19665-4.7788 0.0581-6.5431-2.0767-6.5371-6.6214 0.05-37.788 0.0458-75.577 0.0104-113.37-4e-3 -3.9574 1.6832-5.7683 5.7062-5.749 15.148 0.0727 30.358-0.82935 45.432 0.23636 22.604 1.5981 40.78 11.384 51.659 32.771m-11.903 12.271c-5.1945-15.547-16.112-24.93-31.734-28.926-12.932-3.3078-26.171-1.518-39.281-1.71-3.7332-0.0547-3.3231 3.0547-3.3249 5.5067-0.0202 28.65 0.0363 57.3-0.0609 85.95-0.0122 3.6065 1.0623 5.076 4.8466 4.9819 8.4898-0.21119 16.997 0.1705 25.481-0.13977 7.7004-0.28165 15.1-2.1672 22.047-5.6831 20.525-10.388 29.652-34.751 22.025-59.98z"/>
            

 <!--COPY D-->
            <path d="m924.36 437.42c6.8625 16.678 4.1008 34.758-6.9976 45.877-6.8951 6.9084-15.41 9.6489-24.538 10.093-7.4416 0.36214-14.911 0.021-22.366 0.11896-2.6756 0.0351-3.6635-1.2561-3.6602-4.0052 0.028-22.858 0.0256-45.715 6e-3 -68.573-2e-3 -2.3938 0.94241-3.4892 3.1949-3.4775 8.4816 0.044 16.998-0.50166 25.437 0.14297 12.656 0.96669 22.833 6.886 28.924 19.823m-6.6644 7.4223c-2.9084-9.4044-9.0214-15.08-17.768-17.497-7.2407-2.0008-14.653-0.91823-21.994-1.0344-2.0902-0.0331-1.8606 1.8477-1.8616 3.3309-0.0113 17.33 0.0203 34.66-0.0341 51.99-7e-3 2.1815 0.59476 3.0704 2.7136 3.0135 4.7535-0.12774 9.5168 0.10314 14.267-0.0845 4.3115-0.17037 8.4548-1.3109 12.345-3.4376 11.492-6.2834 16.602-21.02 12.332-36.281z" stroke-width=".58196"/>
        </g><g fill="#342c35">
        <path d="m313.04 287.82c-1.0628-2.2874-1.9598-4.242-3.4065-7.3944-0.61267 5.6431-1.1255 10.081-1.5638 14.527-0.20874 2.1171 0.26605 4.6815-3.1628 4.3864-3.1103-0.2677-2.4726-2.7245-2.3366-4.5668 0.50128-6.7946 1.1884-13.575 1.7748-20.364 0.14557-1.6851 0.0514-3.4448 2.4401-3.6011 2.1533-0.14093 4.2073-0.58453 5.5134 2.0707 2.1122 4.2938 3.4844 8.9783 6.6487 13.264 2.9056-3.6055 4.212-7.6868 5.8592-11.541 1.2123-2.837 2.976-4.3086 6.1036-3.8772 3.1317 0.43195 2.8168 3.2612 2.8245 5.0629 0.0323 7.6294 1.9741 15.167 1.16 23.051-3.5245 1.2847-5.454 0.47003-5.4705-3.5276-0.0171-4.1592 0.0589-8.334-1.646-13.398-1.6001 3.1604-2.7963 5.7193-4.1713 8.1782-1.1503 2.057-1.247 5.1983-4.547 5.2955-3.5955 0.10584-3.6688-3.3133-5.0268-5.416-0.35712-0.55298-0.55579-1.2083-0.99305-2.1494z"/>
        <path d="m52.44 293.15c-5.2114 5.7949-11.973 7.6285-18.213 5.1903-5.4461-2.128-8.9331-7.4647-9.0478-13.707-0.1145-6.2335 2.256-11.102 8.0237-13.751 5.916-2.717 11.755-2.1768 16.906 1.9114 4.4084 3.4987 6.1487 10.748 4.2539 16.45-0.41488 1.2484-1.1251 2.3987-1.9231 3.9061m-21.325-6.6725c2.5897 6.0786 6.759 8.739 11.204 7.1489 4.9681-1.7772 7.9264-6.6409 6.8525-11.266-1.1182-4.8161-5.4527-7.931-10.316-7.413-5.0936 0.54254-7.8323 4.2988-7.7408 11.53z"/>
        <path d="m202.92 299.07c-16.698 0.57452-13.214 1.9416-13.582-12.107-0.13812-5.2761-0.0223-10.559-0.0223-16.13 4.8012 0 9.1125-0.30109 13.363 0.08 4.7767 0.42835 7.5153 5.5159 5.507 10.155-0.99201 2.2914-1.309 3.8617 0.0513 6.3093 2.6119 4.6995 0.54071 8.9249-5.3165 11.693m-7.8135-9.0776c-0.47101 3.8784 1.826 4.4517 4.8829 4.0522 2.329-0.30439 3.8617-1.6022 3.114-3.9917-0.95179-3.042-3.6387-2.9412-6.1541-2.4158-0.64868 0.13543-1.1357 1.0444-1.8428 2.3553m7.2055-12.076c-0.76599-2.4457-2.7073-2.4996-4.7592-2.35-1.313 0.0956-2.1904 0.71064-2.2866 2.0724-0.10993 1.5559-0.82746 3.5909 1.4735 4.0383 2.5258 0.49097 5.0143 0.27094 5.5723-3.7607z"/>
        <path d="m523.69 297.4c-4.8286 2.7841-9.7322 1.834-14.514 1.8583-2.182 0.011-2.7783-1.3981-2.7783-3.3008 0-7.4912 4e-3 -14.982-0.0415-22.473-0.0126-2.0546 0.92914-3.0978 2.9401-3.2149 4.3344-0.25244 8.7318-0.42377 12.847 1.0702 10.081 3.6598 11.089 18.157 1.5466 26.061m-11.731-7.2853c-0.16925 3.1081 1.4835 4.0144 4.3358 3.8204 4.8898-0.33277 8.2823-4.1967 8.1056-9.4282-0.18317-5.4232-3.5486-8.9441-8.5477-9.0659-2.3873-0.0581-3.8386 0.77063-3.8525 3.3519-0.0188 3.4744-0.0411 6.9489-0.0411 11.322z"/>
        <path d="m435.16 296.26c-1.3368-2.1805-2.9894-4.3686-0.62775-6.0239 2.1649-1.5174 3.9294-0.18451 5.1049 2.1382 0.67798 1.34 2.0477 2.3151 3.7512 1.7154 1.4799-0.52094 2.5894-1.5948 2.7899-3.2253 0.22186-1.804-1.082-2.713-2.4661-3.3605-1.3479-0.63073-2.8094-1.0131-4.1897-1.581-4.5079-1.8549-6.679-5.635-5.6915-9.8355 0.97149-4.1327 4.7904-6.7937 9.3728-6.531 4.8246 0.27655 7.2441 2.6267 7.9499 7.8281-2.3066 1.3146-4.2325 1.0198-6.0993-1.0364-1.4476-1.5945-3.3707-1.8137-4.6491 0.14191-1.3359 2.0436 0.0589 3.4324 1.8295 4.3647 0.87213 0.45923 1.8699 0.67505 2.8001 1.0294 5.8949 2.2455 8.2914 6.4575 6.5614 11.516-1.658 4.8475-7.3864 7.2754-12.872 5.3124-1.2031-0.43048-2.2094-1.4111-3.5638-2.4524z"/>
        <path d="m129.75 270.73c2.6012 0.90009 6.6807-1.9294 6.926 2.1559 0.26199 4.3627-3.9201 2.2789-6.1343 2.5265-2.6195 0.29297-4.0385 1.1166-4.0182 3.8774 0.021 2.8391 2.0923 2.4722 3.8799 2.5698 1.1607 0.0635 2.3279 0.0464 3.4837 0.15503 1.423 0.13367 1.9366 1.0784 1.9627 2.4058 0.0261 1.3266-0.48487 2.325-1.8489 2.5351-1.472 0.2268-2.9747 0.24994-4.4625 0.37836-2.0762 0.1792-2.8256 1.4702-2.8101 3.3909 0.0156 1.9401 0.86398 3.1876 2.8994 3.3352 1.9875 0.14429 3.9864 0.14777 5.9692 0.33191 1.287 0.11963 2.1294 0.85529 2.1824 2.2623 0.0595 1.5814-0.65881 2.6412-2.2585 2.6755-4.1512 0.0892-8.3053 0.0719-12.458 0.0477-1.8928-0.011-2.6125-1.2119-2.6176-2.9339-0.0229-7.6453-2e-3 -15.291-0.0492-22.936-0.0148-2.4211 1.3505-3.2323 3.4683-3.175 1.8238 0.0492 3.6436 0.24634 5.8856 0.39715z"/>
        <path d="m568.36 294.18c2.3456 0.43958 2.8103 1.7571 2.4526 3.4181-0.36829 1.71-1.8713 1.6223-3.1889 1.7376-0.33154 0.029-0.66619 0.0336-0.99926 0.0308-15.675-0.13226-12.683 1.8455-13.012-12.288-0.093-3.998 0.13074-8.009-0.0992-11.996-0.20575-3.5693 1.2597-4.7486 4.6904-4.5016 3.1496 0.22693 6.3294 0.0288 9.4958 0.0344 1.3832 2e-3 2.7688 0.0659 2.861 1.9523 0.0922 1.8857-0.91504 2.7369-2.7205 2.7761-1.666 0.0362-3.3324 0.0598-4.9986 0.0878-2.5384 0.0427-3.5914 1.5343-3.5429 3.8635 0.0491 2.3588 1.8478 2.412 3.5789 2.4428 0.66651 0.0118 1.3376-0.0285 1.9989 0.035 1.8605 0.1792 4.402-0.58264 4.386 2.58-0.0154 3.0455-2.4424 2.5654-4.3769 2.6805-0.83099 0.0494-1.6658 0.0402-2.499 0.0463-2.2689 0.0168-3.3249 1.1416-3.2923 3.4222 0.032 2.2414 1.1104 3.4091 3.3267 3.4977 1.8309 0.0732 3.6643 0.0842 5.9394 0.18097z"/>
        <path d="m85.406 286.97c4.734-3.0474 4.696-8.591 6.7368-13.064 1.4939-3.2745 3.1151-4.8859 7.4444-2.8716-3.5314 8.8524-6.7941 17.67-10.613 26.24-1.2526 2.8109-4.6242 2.8309-5.8768 0.0145-3.8109-8.5681-7.0561-17.388-10.562-26.211 4.0815-1.7148 6.1838-0.89209 7.4507 2.7957 1.5053 4.3816 3.4588 8.6092 5.4196 13.097z"/>
        <path d="m234.8 283.18c-2.1998-4.0822-4.7618-7.5654-6.1608-11.86 8.7048-3.0358 7.3358 6.9683 12.187 8.9047 3.895-2.6306 3.0605-11.356 11.395-9.1186-0.89752 4.0082-3.3159 7.0023-5.1782 10.208-2.5438 4.3796-4.6515 8.7408-4.0672 14.028 0.18732 1.6951 0.43713 3.8964-2.3612 4.0471-2.9274 0.15766-3.1334-1.8923-3.0945-3.9882 0.0774-4.1713 0.2049-8.332-2.7202-12.222z"/>
        <path d="m362.38 271.89c1.7991 2.9715 3.3718 5.6902 5.0076 8.518 4.9371-2.1285 3.8447-11.512 12.101-9.2645-0.14056 3.1468-2.2269 5.4318-3.6971 7.8417-3.0916 5.0672-5.6512 10.146-4.8694 16.36 0.25849 2.0546-0.0245 4.1461-2.9962 4.0499-2.7922-0.0905-2.7216-2.2122-2.4944-3.9528 0.849-6.5037-2.5439-11.498-5.5732-16.658-1.3939-2.3744-3.1569-4.5993-3.7302-7.7215 2.3701-0.37426 4.2626-0.82226 6.2526 0.82703z"/>
        <path d="m-4.2932 272.82c0.11697 5.7639 0.31186 11.097 0.15045 16.42-0.11182 3.6871 1.3345 5.2351 4.9899 4.9011 1.1472-0.10468 2.3357 0.0153 3.4823 0.18634 1.6431 0.24505 2.1153 1.4208 1.9988 2.9226-0.10791 1.3915-0.9147 2.1148-2.2751 2.1254-3.662 0.0285-7.3245 0.0303-10.987 1e-3 -1.8679-0.0149-2.6525-1.1109-2.6551-2.8861-0.0109-7.6614-0.34137-15.341 0.0927-22.977 0.23826-4.192 2.7045-3.9055 5.2025-0.69305z"/>
        <path d="m480.41 297.48c-3.2076 2.9064-5.5138 2.6354-5.6605-1.713-0.24634-7.2982-0.083-14.61-0.14466-21.915-0.0191-2.2588 0.90857-3.3484 3.2375-3.3878 2.7044-0.0457 2.8566 1.7564 2.8483 3.6727-0.033 7.6361-0.10413 15.272-0.2807 23.343z"/>
        </g><path d="m-91.501 131.06c-2.594-2.9986-2.8939-6.0486-1.0743-9.0044 1.5339-2.4917 4.2436-3.1338 7.0033-2.7701 3.0161 0.39743 4.5368 2.5846 5.2116 5.3434 0.66446 2.716-0.45138 5.0047-2.5231 6.5801-2.6236 1.995-5.525 1.9442-8.6176-0.14896z" fill="#dbb981"/>
    </svg>
